<svg width="15" height="25" viewBox="0 0 15 25" fill="none" xmlns="http://www.w3.org/2000/svg">
<path d="M11.8365 4.91416C13.0515 4.91416 14.0365 3.92601 14.0365 2.70708C14.0365 1.48814 13.0515 0.5 11.8365 0.5C10.6215 0.5 9.63647 1.48814 9.63647 2.70708C9.63647 3.92601 10.6215 4.91416 11.8365 4.91416Z" fill="#00C8E8"/>
<path d="M2.20002 8.4072C3.41506 8.4072 4.40004 7.41906 4.40004 6.20012C4.40004 4.98118 3.41506 3.99304 2.20002 3.99304C0.984983 3.99304 0 4.98118 0 6.20012C0 7.41906 0.984983 8.4072 2.20002 8.4072Z" fill="#00F44F"/>
<path d="M6.46589 4.91416C7.68093 4.91416 8.66591 3.92601 8.66591 2.70708C8.66591 1.48814 7.68093 0.5 6.46589 0.5C5.25085 0.5 4.26587 1.48814 4.26587 2.70708C4.26587 3.92601 5.25085 4.91416 6.46589 4.91416Z" fill="#00C8E8"/>
<path d="M10.9234 15.2071C12.1385 15.2071 13.1234 14.2189 13.1234 13C13.1234 11.781 12.1385 10.7929 10.9234 10.7929C9.70837 10.7929 8.72339 11.781 8.72339 13C8.72339 14.2189 9.70837 15.2071 10.9234 15.2071Z" fill="#00F44F"/>
<path d="M11.8365 25.5C13.0515 25.5 14.0365 24.5119 14.0365 23.293C14.0365 22.074 13.0515 21.0859 11.8365 21.0859C10.6215 21.0859 9.63647 22.074 9.63647 23.293C9.63647 24.5119 10.6215 25.5 11.8365 25.5Z" fill="#00C8E8"/>
<path d="M2.20002 22.0069C3.41506 22.0069 4.40004 21.0188 4.40004 19.7999C4.40004 18.5809 3.41506 17.5928 2.20002 17.5928C0.984983 17.5928 0 18.5809 0 19.7999C0 21.0188 0.984983 22.0069 2.20002 22.0069Z" fill="#00F44F"/>
<path d="M6.46589 25.5C7.68093 25.5 8.66591 24.5119 8.66591 23.293C8.66591 22.074 7.68093 21.0859 6.46589 21.0859C5.25085 21.0859 4.26587 22.074 4.26587 23.293C4.26587 24.5119 5.25085 25.5 6.46589 25.5Z" fill="#00C8E8"/>
<path d="M6.46589 11.9011C7.68093 11.9011 8.66591 10.913 8.66591 9.69402C8.66591 8.47508 7.68093 7.48694 6.46589 7.48694C5.25085 7.48694 4.26587 8.47508 4.26587 9.69402C4.26587 10.913 5.25085 11.9011 6.46589 11.9011Z" fill="#00F44F"/>
<path d="M6.46589 18.513C7.68093 18.513 8.66591 17.5249 8.66591 16.306C8.66591 15.087 7.68093 14.0989 6.46589 14.0989C5.25085 14.0989 4.26587 15.087 4.26587 16.306C4.26587 17.5249 5.25085 18.513 6.46589 18.513Z" fill="#00F44F"/>
<path d="M19.7876 5.76331H29.8738V8.67221H23.2324V11.3195H29.0434V14.2149H23.2324V17.1246H29.975V20.0234H19.7876V5.76331Z" fill="white"/>
<path d="M31.2695 20.0268V9.94379H34.2949L34.3995 11.0046C35.1118 10.1013 36.3261 9.73468 37.5093 9.73468C39.4046 9.73468 41.2224 11.0689 41.2224 13.4741V20.0285H37.9287V14.4181C37.9287 13.2938 37.0384 12.7587 36.2409 12.7587C35.4139 12.7587 34.5658 13.2938 34.5658 14.4181V20.0268H31.2695Z" fill="white"/>
<path d="M43.0754 9.94379H46.1008L46.2054 11.0046C46.9177 10.1013 48.132 9.73468 49.3152 9.73468C50.6553 9.73468 51.943 10.3019 52.4772 11.416C53.2941 10.2604 54.592 9.73468 55.8595 9.73468C57.8005 9.73468 59.6283 11.0164 59.6283 13.4741V20.0285H56.3304V14.4181C56.3304 13.2938 55.5135 12.7587 54.6865 12.7587C53.8595 12.7587 52.9903 13.2938 52.9903 14.4181V20.0268H49.6924V14.4181C49.6924 13.2938 48.8443 12.7587 48.0485 12.7587C47.2215 12.7587 46.3734 13.2938 46.3734 14.4181V20.0268H43.0754V9.94379Z" fill="white"/>
<path d="M66.4092 9.73297C69.5189 9.73297 71.8101 11.9815 71.8101 14.9819C71.8101 17.9822 69.5172 20.2308 66.4092 20.2308C63.3012 20.2308 61.0083 17.9831 61.0083 14.9819C61.0083 11.9807 63.2995 9.73297 66.4092 9.73297ZM66.4092 17.2228C67.6658 17.2228 68.5451 16.267 68.5451 14.9853C68.5451 13.7357 67.6658 12.779 66.4092 12.779C65.1526 12.779 64.2733 13.7357 64.2733 14.9853C64.2733 16.267 65.1526 17.2228 66.4092 17.2228Z" fill="white"/>
<path d="M73.043 20.0268V9.94379H76.0692L76.1738 11.0046C76.886 10.1013 78.1004 9.73468 79.2835 9.73468C81.1781 9.73468 82.9967 11.0689 82.9967 13.4741V20.0285H79.7021V14.4181C79.7021 13.2938 78.8118 12.7587 78.0143 12.7587C77.1873 12.7587 76.3392 13.2938 76.3392 14.4181V20.0268H73.043Z" fill="white"/>
</svg>
