<svg width="15" height="25" viewBox="0 0 15 25" fill="none" xmlns="http://www.w3.org/2000/svg">
<path d="M11.8363 4.41416C13.0513 4.41416 14.0363 3.42601 14.0363 2.20708C14.0363 0.988142 13.0513 0 11.8363 0C10.6212 0 9.63623 0.988142 9.63623 2.20708C9.63623 3.42601 10.6212 4.41416 11.8363 4.41416Z" fill="#00C8E8"/>
<path d="M2.20002 7.9072C3.41506 7.9072 4.40004 6.91906 4.40004 5.70012C4.40004 4.48118 3.41506 3.49304 2.20002 3.49304C0.984983 3.49304 0 4.48118 0 5.70012C0 6.91906 0.984983 7.9072 2.20002 7.9072Z" fill="#00F44F"/>
<path d="M6.46565 4.41416C7.68069 4.41416 8.66567 3.42601 8.66567 2.20708C8.66567 0.988142 7.68069 0 6.46565 0C5.25061 0 4.26562 0.988142 4.26562 2.20708C4.26562 3.42601 5.25061 4.41416 6.46565 4.41416Z" fill="#00C8E8"/>
<path d="M10.9232 14.7071C12.1382 14.7071 13.1232 13.719 13.1232 12.5C13.1232 11.2811 12.1382 10.293 10.9232 10.293C9.70813 10.293 8.72314 11.2811 8.72314 12.5C8.72314 13.719 9.70813 14.7071 10.9232 14.7071Z" fill="#00F44F"/>
<path d="M11.8363 25C13.0513 25 14.0363 24.0118 14.0363 22.7929C14.0363 21.574 13.0513 20.5858 11.8363 20.5858C10.6212 20.5858 9.63623 21.574 9.63623 22.7929C9.63623 24.0118 10.6212 25 11.8363 25Z" fill="#00C8E8"/>
<path d="M2.20002 21.5069C3.41506 21.5069 4.40004 20.5188 4.40004 19.2999C4.40004 18.0809 3.41506 17.0928 2.20002 17.0928C0.984983 17.0928 0 18.0809 0 19.2999C0 20.5188 0.984983 21.5069 2.20002 21.5069Z" fill="#00F44F"/>
<path d="M6.46565 25C7.68069 25 8.66567 24.0118 8.66567 22.7929C8.66567 21.574 7.68069 20.5858 6.46565 20.5858C5.25061 20.5858 4.26562 21.574 4.26562 22.7929C4.26562 24.0118 5.25061 25 6.46565 25Z" fill="#00C8E8"/>
<path d="M6.46565 11.4011C7.68069 11.4011 8.66567 10.413 8.66567 9.19402C8.66567 7.97508 7.68069 6.98694 6.46565 6.98694C5.25061 6.98694 4.26562 7.97508 4.26562 9.19402C4.26562 10.413 5.25061 11.4011 6.46565 11.4011Z" fill="#00F44F"/>
<path d="M6.46565 18.013C7.68069 18.013 8.66567 17.0249 8.66567 15.806C8.66567 14.587 7.68069 13.5989 6.46565 13.5989C5.25061 13.5989 4.26562 14.587 4.26562 15.806C4.26562 17.0249 5.25061 18.013 6.46565 18.013Z" fill="#00F44F"/>
</svg>
